<?xml version="1.0" encoding="UTF-8"?><svg xmlns="http://www.w3.org/2000/svg" xmlns:xlink="http://www.w3.org/1999/xlink" viewBox="0 0 1024 1024"><defs><style>.j{fill:url(#g);}.k{fill:url(#h);}.l{fill:url(#i);}.m{fill:url(#f);}.n{fill:url(#e);}.o{mask:url(#d);}.p{fill:url(#b);opacity:0;}.q{fill:#fff;}.r{fill:#009cff;}.s{fill:none;stroke:#000;stroke-linecap:round;stroke-miterlimit:10;stroke-width:20px;}</style><linearGradient id="b" x1="14.89" y1="673.88" x2="1073.25" y2="342.05" gradientUnits="userSpaceOnUse"><stop offset="0" stop-color="#333"/><stop offset="1" stop-color="#1a1a1a"/></linearGradient><linearGradient id="e" x1="209.2" y1="221.53" x2="1091.48" y2="221.53" gradientUnits="userSpaceOnUse"><stop offset=".26" stop-color="#fff"/><stop offset=".32" stop-color="#d9d9d9"/><stop offset=".46" stop-color="#8d8d8d"/><stop offset=".57" stop-color="#505050"/><stop offset=".67" stop-color="#242424"/><stop offset=".75" stop-color="#090909"/><stop offset=".8" stop-color="#000"/></linearGradient><mask id="d" x="105.17" y="-279.91" width="1090.35" height="1002.88" maskUnits="userSpaceOnUse"><rect class="n" x="209.2" y="-139.4" width="882.28" height="721.86" transform="translate(132.89 -230.43) rotate(22.32)"/></mask><linearGradient id="f" x1="82.67" y1="494.97" x2="572.26" y2="494.97" gradientTransform="translate(1060.48) rotate(-180) scale(1 -1)" gradientUnits="userSpaceOnUse"><stop offset="0" stop-color="#3f4c85"/><stop offset="1" stop-color="#4c65b2"/></linearGradient><linearGradient id="g" x1="173.04" y1="615.62" x2="771.89" y2="536.44" gradientTransform="translate(1060.48) rotate(-180) scale(1 -1)" gradientUnits="userSpaceOnUse"><stop offset="0" stop-color="#2368bf"/><stop offset="1" stop-color="#4392ff"/></linearGradient><linearGradient id="h" x1="324.01" y1="685.47" x2="985.73" y2="685.47" gradientTransform="translate(1060.48) rotate(-180) scale(1 -1)" gradientUnits="userSpaceOnUse"><stop offset="0" stop-color="#2a88ff"/><stop offset="1" stop-color="#7ee2ff"/></linearGradient><linearGradient id="i" x1="235.3" y1="685.47" x2="545.25" y2="685.47" xlink:href="#b"/></defs><g id="a"><rect class="p" x="-33.97" y="-19.41" width="1091.94" height="1074.85"/></g><g id="c"><path class="r" d="m393.87,299.14l-223.19,20.93c-7.27.68-13.45-5.24-13.08-12.53l11.29-221.75c.52-10.21,12.78-15.12,20.2-8.08l211.91,200.82c7.47,7.08,3.12,19.66-7.12,20.62Z"/><g class="o"><path class="r" d="m821.87,398.08l-119.99-1.18c.68-69.08-17.7-123.76-54.63-162.52-31.06-32.59-75.71-53.02-125.73-57.52-103.48-9.32-183.23,28.92-250.98,120.36l-96.42-71.44c92.5-124.84,213.01-181.51,358.16-168.43,79.02,7.12,150.7,40.59,201.84,94.26,58.4,61.28,88.74,146.51,87.76,246.49Z"/></g><path class="m" d="m511.46,623.04l434.38,69.57c16.77,2.69,31.97-10.27,31.97-27.25v-271.22c0-13.56-9.85-25.11-23.24-27.25l-434.38-69.57c-16.77-2.69-31.97,10.27-31.97,27.25v271.22c0,13.56,9.85,25.11,23.24,27.25Z"/><path class="j" d="m362.37,729.11l490.68,78.59c18.94,3.03,36.11-11.6,36.11-30.79v-316.66c0-15.32-11.12-28.36-26.25-30.79l-490.68-78.59c-18.94-3.03-36.11,11.6-36.11,30.79v316.66c0,15.32,11.12,28.36,26.25,30.79Z"/><path class="k" d="m685.93,964.3c-2.69,0-5.4-.22-8.08-.65l-560.49-89.77c-24.69-3.95-42.61-24.97-42.61-49.98v-366.65c0-27.91,22.67-50.62,50.54-50.62,2.69,0,5.4.22,8.08.65l560.49,89.77c24.69,3.95,42.61,24.97,42.61,49.98v366.65c0,13.62-5.33,26.39-15,35.96-9.55,9.45-22.18,14.66-35.54,14.66h0Z"/><path d="m125.3,421.64c1.88,0,3.78.15,5.7.46l560.49,89.77c17.27,2.77,29.98,17.67,29.98,35.17v366.65c0,19.97-16.28,35.62-35.54,35.62-1.88,0-3.78-.15-5.7-.46l-560.49-89.77c-17.27-2.77-29.98-17.67-29.98-35.17v-366.65c0-19.97,16.28-35.62,35.54-35.62m0-30c-36.14,0-65.54,29.44-65.54,65.62v366.65c0,15.59,5.57,30.71,15.68,42.57,10.11,11.86,24.16,19.75,39.55,22.22l560.49,89.77c3.46.55,6.97.83,10.45.83,36.14,0,65.54-29.44,65.54-65.62v-366.65c0-15.59-5.57-30.71-15.68-42.57-10.11-11.86-24.16-19.75-39.55-22.22l-560.49-89.77c-3.46-.55-6.97-.83-10.45-.83h0Z"/><path class="q" d="m419.62,844.23c-3.33.17-6.75.21-10.15.12-75.41-2.03-148.58-71.28-158.39-160.48-4.74-43.06,6.79-83.74,32-113.3,24.78-29.06,59.75-43.54,97.28-41.46,6.14.34,12.35,1.12,18.45,2.31,36.31,7.08,69.83,28.46,94.95,59.27,24.05,29.49,38.56,65.89,41.73,103.08,3.39,39.75-6.17,76.26-27.31,103.97-21.02,27.56-52.89,44.69-88.56,46.49,0,0,0,0,0,0Z"/><path class="l" d="m400.57,544.71c33.14,6.13,63.85,25.34,86.95,53.31,22.22,26.9,35.71,60.41,38.72,94.82,3.26,37.18-5.71,71.31-25.58,97.14-19.71,25.62-49.47,41.35-82.63,42.72-3.08.13-6.24.13-9.38.02-32.8-1.19-65.9-16.04-92.81-42.75-28-27.79-46.3-65.01-50.5-104.24-4.21-39.41,6.36-76.73,29.38-104.03,22.66-26.86,54.6-40.49,88.96-38.93,5.62.25,11.3.91,16.89,1.94h0Zm-3.53-26.68c-6.6-1.35-13.28-2.27-20.03-2.71-87.76-5.76-151.46,69.55-140.47,166.65,10.78,95.28,89.32,172.46,173.76,173.95,3.69.07,7.33-.01,10.91-.23,76.59-4.57,130.65-73.6,123.4-161-7.12-85.77-70.61-160.86-147.56-176.65h0Z"/><line class="s" x1="344.92" y1="755.56" x2="404.74" y2="703.27"/><line class="s" x1="401.42" y1="579.52" x2="404.74" y2="703.27"/></g></svg>