<svg xmlns="http://www.w3.org/2000/svg" xmlns:xlink="http://www.w3.org/1999/xlink" viewBox="0 0 1024 1024" xmlns:v="https://vecta.io/nano"><style><![CDATA[.P{fill:#fff}.Q{stroke-linecap:round}.R{stroke-miterlimit:10}.S{stroke:#000}.T{fill:none}.U{stroke-width:20}.V{stroke-width:6}.W{fill:#518050}]]></style><path d="M0 0h1024v1024H0z" opacity="0"/><path d="M348.3 1869.7l-11.9 1.4-11.8 1.4-39.9 4.6a32.53 32.53 0 0 1-4.4.3c-10.3 0-20-4.4-26.6-12.1-7-8.2-10-19.6-8.1-31.1l18.3-114.2-5.2.8-12.9 1.9-12.9 1.9-67.5 10c-18.3 2.7-33.8 18.4-36.8 37.2L97.1 1968c-1.9 11.5 1.1 22.9 8.1 31.1 6.6 7.7 16.2 12.1 26.5 12.1a32.53 32.53 0 0 0 4.4-.3l39.9-4.6 11.8-1.4 11.9-1.4 254.7-29.4 12.4-1.4 12.3-1.4 68.2-7.9h0 .1c20.6-2.5 37.1-20.2 38.6-41.4l5.4-59.5 1.1-12.7.8-8.4-245 28.3zm439.5-296.2c-6.9-7.4-16.5-11.4-26.8-11.4-1.9 0-3.9.1-5.8.4l-203.5 30.1-12.9 1.9-12.9 1.9-74.5 11-12.9 1.9-12.9 1.9-67.5 10c-18.3 2.7-33.8 18.4-36.8 37.2l-13.1 81.9 69.3-10.2 12.9-1.9 12.9-1.9 203.5-30.1c1.9-.3 3.9-.4 5.8-.4 10.4 0 19.9 4.1 26.8 11.4 7 7.5 10.5 17.4 9.8 28.1v.3.3l-2.4 26.3-2.3 25.3-6.3 69.9-.4 4.3 9.4-1.1 12.4-1.4 12.3-1.4 68.2-7.9h0 0c20.6-2.5 37.1-20.2 38.7-41.4l5.4-59.5 1.1-12.7 1.1-12.6 6.3-69.9 2.3-25.3 2.4-26.3v-.3-.3c.9-10.7-2.5-20.6-9.6-28.1zm169.8-154.7c-6.9-7.4-16.5-11.4-26.8-11.4-1.9 0-3.9.1-5.8.4l-203.5 30.1-12.9 1.9-12.9 1.9-74.5 11-12.9 1.9-12.9 1.9-67.5 10c-18.3 2.7-33.8 18.4-36.8 37.2l-13.1 81.9 69.3-10.2 12.9-1.9 12.9-1.9 203.5-30.1c1.9-.3 3.9-.4 5.8-.4 10.4 0 19.9 4.1 26.8 11.4 7 7.5 10.5 17.4 9.8 28.1v.3.3l-2.4 26.3-2.3 25.3-6.3 69.9-.4 4.3 9.4-1.1 12.4-1.4 12.3-1.4 68.2-7.9h0 0c20.6-2.5 37.1-20.2 38.7-41.4l5.4-59.5 1.1-12.7 1.1-12.6 6.3-69.9 2.3-25.3 2.4-26.3v-.3-.3c.9-10.7-2.6-20.6-9.6-28.1zm-202-1038c-6.9-7.4-16.5-11.4-26.8-11.4-1.9 0-3.9.1-5.8.4l-203.5 30.1-12.9 1.9-12.9 1.9-74.5 11-12.9 1.9-12.9 1.9-67.5 10c-18.3 2.7-33.8 18.4-36.8 37.2L276 547.6l69.3-10.2 12.9-1.9 12.9-1.9 203.5-30.1c1.9-.3 3.9-.4 5.8-.4 10.4 0 19.9 4.1 26.8 11.4 7 7.5 10.5 17.4 9.8 28.1v.3.3l-2.4 26.3-2.3 25.3-6.3 69.9-.4 4.3 9.4-1.1 12.4-1.4 12.3-1.4 68.2-7.9h0 0c20.6-2.5 37.1-20.2 38.7-41.4l5.4-59.5 1.1-12.7 1.1-12.6 6.3-69.9 2.3-25.3 2.4-26.3v-.3-.3c.9-10.6-2.6-20.6-9.6-28.1zM917 235.2c-6.9-7.4-16.5-11.4-26.8-11.4-1.9 0-3.9.1-5.8.4l-203.5 30.1-12.9 1.9-12.9 1.9-74.5 11-12.9 1.9-12.9 1.9-67.5 10c-18.3 2.7-33.8 18.4-36.8 37.2L437.4 402l69.3-10.2 12.9-1.9 12.9-1.9 203.4-30c1.9-.3 3.9-.4 5.8-.4 10.4 0 19.9 4.1 26.8 11.4 7 7.5 10.5 17.4 9.8 28.1v.3.3l-2.4 26.3-2.3 25.3-6.3 69.9-.4 4.3 9.4-1.1 12.4-1.4 12.3-1.4 68.2-7.9h0 0c20.6-2.5 37.1-20.2 38.7-41.4l5.4-59.5 1.1-12.7 1.1-12.6 6.3-69.9 2.3-25.3 2.4-26.3v-.3-.3c1-10.7-2.5-20.7-9.5-28.2zm-3748 620.5v187.2c0 5.2-4.2 9.3-9.3 9.3h-27.8v-77.1c0-14.3-11.6-25.8-25.8-25.8h-360.8v-93.6c0-5.2 4.2-9.4 9.3-9.4h405.1c5.2 0 9.3 4.2 9.3 9.4zm45.6-110.4v187.2c0 5.2-4.2 9.3-9.4 9.3h-27.8v-87a15.88 15.88 0 0 0-15.9-15.9h-370.7v-93.6c0-5.2 4.2-9.3 9.4-9.3h405.1c5.1-.1 9.3 4.1 9.3 9.3zm-1639.4-331.9c-3.1 0-6.2-1.3-8.3-3.5-2.2-2.3-3.4-5.3-3.3-8.4l2.7-98.7c0-.2-.2-1-1-1.8-.5-.5-1.9-1.7-4-1.7-.3 0-.7 0-1 .1l-250.1 46.2 7.4-59.9c1.2-9.7 8.9-18.3 18-19.9l298.1-55a19.53 19.53 0 0 1 3.4-.3c4.7 0 9 1.8 12.1 5.1 3.2 3.4 4.9 8 4.6 13l-7.5 155.1c-.5 10.7-8.9 20.3-19.1 21.9l-50.2 7.8h-1.8z"/><path d="M-4362.9 218.3c5.2 0 9 4 8.7 9.7l-7.5 155.1c-.3 6.9-5.8 13.4-12.3 14.4l-50.2 7.8h-.6c-2 0-3.7-1.7-3.6-3.7l2.7-98.7c.2-5.7-5.7-11.7-13-11.7-.8 0-1.7.1-2.5.2l-239.4 44.2 6.1-49.1c.8-6.2 5.9-12 11.5-13l298.1-55c.7-.1 1.3-.2 2-.2m0-16c-1.6 0-3.3.2-4.9.4l-298.1 55.1c-12.6 2.3-22.9 13.6-24.5 26.8l-6.1 49.1-2.7 21.7 21.5-4 235.8-43.5-2.5 93.4c-.1 5.3 1.9 10.5 5.6 14.2 3.7 3.8 8.8 5.9 14.1 5.9 1 0 2-.1 3-.2l50.2-7.8c14-2.2 25.1-14.8 25.8-29.4l7.5-155.1c.3-7.2-2.1-14-6.8-18.9-4.7-5-11-7.7-17.9-7.7h0z" class="P"/><path d="M-4690.3 344.8l-7 56.6-64.3 11.9 5.6-45.6c.8-6.1 5.9-11.9 11.5-12.9l54.2-10z"/><path d="M-4435.4 309.1l-2.8 106-69.7 10.9 1.2-45.1c.2-6.3-5.4-13.7-13.8-12.2l-176.8 32.7 7-56.6 243.9-45c6.3-1.2 11.2 3 11 9.3zm-2.8 106.1l-1.3 48.5c-.2 7-5.6 13.5-12.2 14.5l-54.7 8.6c-1.6.3-3.1-1-3-2.7l1.5-58 69.7-10.9zm-336.4-557.9h-50.9c-23.4 0-42.3-18.9-42.3-42.3v-9.6c0-23.4 18.9-42.3 42.3-42.3h50.9c23.4 0 42.3 18.9 42.3 42.3v9.6c0 23.3-18.9 42.3-42.3 42.3z"/><path d="M-4789-134.7c-27.7 0-50.3-22.6-50.3-50.3v-32.3c0-27.7 22.6-50.3 50.3-50.3h83.6c27.7 0 50.3 22.6 50.3 50.3v32.3c0 27.7-22.6 50.3-50.3 50.3h-83.6z"/><path d="M-4705.4-259.6c23.4 0 42.3 18.9 42.3 42.3v32.3c0 23.4-18.9 42.3-42.3 42.3h-83.6c-23.4 0-42.3-18.9-42.3-42.3v-32.3c0-23.4 18.9-42.3 42.3-42.3h83.6m0-16h-83.6c-32.1 0-58.3 26.2-58.3 58.3v32.3c0 32.1 26.2 58.3 58.3 58.3h83.6c32.1 0 58.3-26.2 58.3-58.3v-32.3c0-32.2-26.2-58.3-58.3-58.3h0z" class="P"/><path d="M-4751.7-134.7c-27.7 0-50.3-22.6-50.3-50.3v-53.6c0-27.7 22.6-50.3 50.3-50.3h50.6c27.7 0 50.3 22.6 50.3 50.3v53.6c0 27.7-22.6 50.3-50.3 50.3h-50.6z"/><path d="M-4701.1-280.9c23.4 0 42.3 18.9 42.3 42.3v53.6c0 23.4-18.9 42.3-42.3 42.3h-50.6c-23.4 0-42.3-18.9-42.3-42.3v-53.6c0-23.4 18.9-42.3 42.3-42.3h50.6m0-16h-50.6c-32.1 0-58.3 26.2-58.3 58.3v53.6c0 32.1 26.2 58.3 58.3 58.3h50.6c32.1 0 58.3-26.2 58.3-58.3v-53.6c0-32.2-26.1-58.3-58.3-58.3h0z" class="P"/><path d="M-4807.3 54.2l-80.7-10.1c-9.2-1.2-14.6-11.9-12.2-24l9.7-49.3c2.3-11.7 11.5-21.5 20.8-21.8l81.1-3c12.4-.5 20.9 10.6 18.5 24.7l-10 59.7c-2.4 14.7-14.8 25.4-27.2 23.8z"/><path d="M-4718.7 73.1c-1.5 0-3-.1-4.5-.3l-130.9-16.4c-6.4-.8-12.1-4.2-16-9.6-4.9-6.8-6.7-16-5-25.3l14.2-75.4c3-16.1 16-29 30.1-30l131.1-9.6c.9-.1 1.8-.1 2.7-.1 9.5 0 17.9 3.7 23.7 10.4s8.2 15.7 6.8 25.2l-14.3 97.5c-2.7 19.2-19 33.6-37.9 33.6z"/><path d="M-4697-85.5c14.6 0 24.9 11.4 22.7 26.4l-14.3 97.5c-2.3 15.4-15.6 26.8-30.1 26.8-1.1 0-2.3-.1-3.5-.2l-130.9-16.4c-10.4-1.3-16.6-12.7-14.1-25.5l14.2-75.4c2.3-12.3 12.4-22.7 22.9-23.5l131.1-9.6c.6-.1 1.3-.1 2-.1m0-16h0 0c-1.1 0-2.2 0-3.3.1l-131.1 9.6c-17.6 1.3-33.7 17-37.4 36.5L-4883 20c-2.2 11.5.1 23 6.4 31.5 5.3 7.2 12.9 11.8 21.5 12.9l130.9 16.4c1.8.2 3.6.3 5.4.3 22.8 0 42.5-17.4 45.9-40.5l14.3-97.5c1.7-11.9-1.3-23.1-8.7-31.6-7.1-8.2-18-13-29.7-13h0z" class="P"/><path d="M-4702.9 75.1a37.08 37.08 0 0 1-4.7-.3l-104.8-13.2c-7.2-.9-13.6-4.7-18-10.7-5.2-7.1-7.2-16.5-5.5-26l18.5-103c2.9-16.4 17.2-30.5 32.4-32.1l104.6-11.1c1.4-.1 2.8-.2 4.1-.2 9.7 0 18.2 3.7 23.9 10.3 5.6 6.5 8 15.2 6.7 24.4l-18.2 127.7c-2.8 19.5-19.5 34.2-39 34.2z"/><path d="M-4676.3-113.5c14.6 0 24.8 10.8 22.7 25.6l-18.2 127.7c-2.2 15.7-16 27.3-31.1 27.3-1.2 0-2.4-.1-3.7-.2l-104.8-13.2c-11.8-1.5-19.1-13.8-16.6-27.4l18.5-103c2.3-12.9 13.5-24.3 25.3-25.5l104.6-11.1c1.1-.2 2.2-.2 3.3-.2m0-16h0a43.21 43.21 0 0 0-5 .3l-104.6 11.1c-18.9 2-35.8 18.6-39.4 38.6l-18.5 103c-2.1 11.6.4 23.4 6.9 32.2 5.7 7.8 14.1 12.7 23.5 13.9l104.8 13.2c1.9.2 3.8.4 5.7.4 23.4 0 43.6-17.6 46.9-41l18.2-127.7c1.7-11.6-1.4-22.5-8.6-30.8-7.3-8.6-17.9-13.2-29.9-13.2h0z" class="P"/><use xlink:href="#B"/><path d="M-4505.7-255.3c12.5 0 22.7 10.2 22.7 22.7v26.4c0 12.5-10.2 22.7-22.7 22.7h-5.2c-12.5 0-22.7-10.2-22.7-22.7v-26.4c0-12.5 10.2-22.7 22.7-22.7h5.2m0-16h-5.2c-21.3 0-38.7 17.4-38.7 38.7v26.4c0 21.3 17.4 38.7 38.7 38.7h5.2c21.3 0 38.7-17.4 38.7-38.7v-26.4c0-21.3-17.4-38.7-38.7-38.7h0z" class="P"/><use xlink:href="#B" x="58.6"/><path d="M-4447.1-255.3c12.5 0 22.7 10.2 22.7 22.7v26.4c0 12.5-10.2 22.7-22.7 22.7h-5.2c-12.5 0-22.7-10.2-22.7-22.7v-26.4c0-12.5 10.2-22.7 22.7-22.7h5.2m0-16h-5.2c-21.3 0-38.7 17.4-38.7 38.7v26.4c0 21.3 17.4 38.7 38.7 38.7h5.2c21.4 0 38.7-17.4 38.7-38.7v-26.4c0-21.3-17.4-38.7-38.7-38.7h0z" class="P"/><path d="M-4570.1-139.1c-16.6 0-30.2-13.5-30.2-30.2v-18.6c0-16.6 13.5-30.2 30.2-30.2h123.5c16.6 0 30.2 13.5 30.2 30.2v18.6c0 16.6-13.5 30.2-30.2 30.2h-123.5z"/><path d="M-4446.6-210c12.2 0 22.2 9.9 22.2 22.2v18.6c0 12.2-9.9 22.2-22.2 22.2h-123.5c-12.2 0-22.2-9.9-22.2-22.2v-18.6c0-12.2 9.9-22.2 22.2-22.2h123.5m0-16h-123.5c-21.1 0-38.2 17.1-38.2 38.2v18.6c0 21.1 17.1 38.2 38.2 38.2h123.5c21.1 0 38.2-17.1 38.2-38.2v-18.6c0-21.1-17.1-38.2-38.2-38.2h0z" class="P"/><path d="M-4564.3-183.4h-5.2c-12.5 0-22.7-10.2-22.7-22.7v-26.4c0-12.5 10.2-22.7 22.7-22.7h5.2c12.5 0 22.7 10.2 22.7 22.7v26.4c0 12.5-10.2 22.7-22.7 22.7zm31.7 578.7l-1.1 41.5-1.6 61.2-1.1 44.7c0 .1-.1.2-.2.3l-304 47.6 17.4-141.2c0-.1.1-.2.2-.3l53.3-9.9 64.3-11.9 172.8-32m6.3-16.2c-.7 0-1.3.1-2 .2l-179.6 33.2-64.3 11.9-54.1 10c-5.6 1-10.8 6.8-11.5 12.9l-18.4 148.9c-.8 6.1 2.6 10.6 7.7 10.6.5 0 .9 0 1.4-.1l313.6-49.1c6.5-1 12-7.5 12.2-14.5l1.1-44.9 1.6-61.2 1.2-48.5c.1-5.5-3.7-9.4-8.9-9.4h0z"/><path d="M-4250.9-95.5c-4.5 0-8.6-1.8-11.5-5.1-3.3-3.7-4.7-8.8-4-14.4l18.4-148.9c1.2-9.7 8.9-18.2 18-19.9l298.1-55a19.53 19.53 0 0 1 3.4-.3c4.7 0 9 1.8 12.1 5.1 3.2 3.4 4.9 8 4.6 13l-7.5 155.1c-.5 10.7-8.9 20.3-19.1 21.9l-309.9 48.4c-.8 0-1.7.1-2.6.1z" fill="#1a1a1a"/><path d="M-3928.5-331.2c5.2 0 9 4 8.7 9.7l-7.5 155.1c-.3 6.9-5.8 13.4-12.3 14.4l-309.9 48.4c-.5.1-1 .1-1.4.1-5 0-8.4-4.4-7.6-10.5l18.4-148.9c.8-6.2 5.9-12 11.5-13l298.1-55c.7-.3 1.4-.3 2-.3m0-16h0 0c-1.6 0-3.3.2-4.9.5l-298.1 55c-12.6 2.3-22.9 13.6-24.5 26.8l-18.4 148.9c-1 7.9 1.1 15.2 6 20.6 4.5 5.1 10.7 7.8 17.5 7.8 1.3 0 2.6-.1 3.9-.3l309.9-48.4c14-2.2 25.1-14.8 25.8-29.4l7.5-155.1c.3-7.2-2.1-14-6.8-18.9-4.6-4.8-11-7.5-17.9-7.5h0z" class="P"/><path d="M-4007.5-80.5l-313.6 49c-5.9.9-10-3.8-9.1-10.5l18.4-148.9c.8-6.1 5.9-11.9 11.5-12.9l298.1-55c6.2-1.1 11.1 3 10.9 9.4l-4 154.6c-.2 6.8-5.7 13.3-12.2 14.3z" fill="#333"/><path d="M-4078.7-12.1L-4392.3 37c-5.9.9-10-3.8-9.1-10.5l18.4-148.9c.8-6.1 5.9-11.9 11.5-12.9l298.1-55.1c6.2-1.1 11.1 3 10.9 9.4l-4 154.6c-.2 6.8-5.7 13.3-12.2 14.3z" fill="#999"/><path d="M-4833.7 197.2l126.4 120c2.8 2.7 1.4 7.4-2.5 8l-152.6 24.8c-3.2.5-5.9-2.3-5.4-5.5l26.2-144.8c.7-3.6 5.2-5.1 7.9-2.5z"/><path d="M-4496.6 212.6c5.2 3.2-174.4-2.7-252 77.9-77.7 80.6-62.4-49.6-62.4-49.6s141.1-136.1 314.4-28.3zm784.8-50.7l-12.5 138.4c-.6 6.9-6.3 13.2-12.8 13.9l-50.5 6c-2.3.3-4.2-1.6-4.1-3.8l5.7-82.2c1.5-12.3-4.5-29.8-23.7-27L-4039 241c-1.1.2-2.1-.8-1.9-1.9l7.5-46.6c1-6.1 6.4-11.8 12-12.6l283.2-41.7c18.4-4.1 28.4 4.7 26.4 23.7zm-340.1 90.9l-9 56.3-61.6 9.1c-1.6.2-2.9-1.1-2.7-2.7l6.8-42.2c1-6.1 6.3-11.7 12-12.5l54.5-8z"/><path d="M-3796.4 238.2l-6.2 94-70.1 8.4 2.1-22.7c3.3-20.2-17.7-36.3-35.9-31.6l-154.4 22.8 9-56.3 233.8-34.4c14.8-3 22.2 8.3 21.7 19.8z"/><path d="M-3802.6 332.2l-3 48.4c-.4 7-6.1 13.3-12.7 14l-55 6.6c-1.6.2-3-1.1-2.9-2.8l3.6-57.9 70-8.3zm-102.4-19.7c4.6 0 7.9 3.5 7.6 8.4l-2.6 41.3-3.2 52-2.4 38.2c-.4 5.9-5.2 11.3-10.8 12l-268.6 32.1c-.3 0-.6.1-1 .1-4.5 0-7.4-4-6.5-9.3l20.3-126.2c.8-5.2 5.4-9.9 10.2-10.7l46.4-6.8 55.2-8.1 154-22.7c.4-.3.9-.3 1.4-.3m0-16c-1.2 0-2.5.1-3.8.3l-154 22.7-55.2 8.1-46.4 6.8c-11.8 1.7-21.7 11.8-23.7 24l-20.3 126.2c-1.2 7.4.7 14.7 5.2 20 4.2 5 10.5 7.8 17.1 7.8.9 0 1.9-.1 2.9-.2l268.6-32.1c13.3-1.6 24-13.1 24.9-26.9l2.4-38.2 3.2-52 2.6-41.3c.4-6.8-1.8-13.2-6.3-18-4.4-4.6-10.6-7.2-17.2-7.2h0zm-184.3 367.4l139.1 29c3.1.6 4.1 4.6 1.7 6.6l-95.1 82.7c-2 1.7-5.1 1-6.1-1.5l-44-111.6c-1.1-2.9 1.4-5.9 4.4-5.2z"/><path d="M-3768.4 603.7c1.7 1.2 1.3 2 .5 2.9-1 1-3.1.2-3.5.1-19.2-6.1-159.9-30.3-219 94-31.4 66-73.5-10.1-73.5-10.1s102.5-226.3 295.5-86.9zm477.3-872.5l-12.5 138.4c-.6 6.9-6.3 13.2-12.8 13.9l-50.5 6c-2.3.3-4.2-1.6-4.1-3.8l5.7-82.2c1.5-12.3-4.5-29.8-23.7-27l-229.3 33.8c-1.1.2-2.1-.8-1.9-1.9l7.5-46.6c1-6.1 6.4-11.8 12-12.6l283.2-41.7c18.4-4.2 28.4 4.7 26.4 23.7zm-340.1 90.8l-9 56.3-61.6 9.1c-1.6.2-2.9-1.1-2.7-2.7l6.8-42.2c1-6.1 6.3-11.7 12-12.5l54.5-8zm255.5-14.5l-6.2 94-70.1 8.4 2.1-22.7c3.3-20.2-17.7-36.3-35.9-31.6l-154.4 22.8 9-56.3 233.8-34.4c14.8-3 22.1 8.3 21.7 19.8z"/><path d="M-3381.9-98.5l-3 48.4c-.4 7-6.1 13.3-12.7 14l-55 6.6c-1.6.2-3-1.1-2.9-2.8l3.6-57.9 70-8.3zm-102.5-19.8c4.6 0 7.9 3.5 7.6 8.4l-2.6 41.3-3.2 52-2.4 38.2c-.4 5.9-5.2 11.3-10.8 12l-268.6 32.1c-.3 0-.6.1-1 .1-4.5 0-7.4-4-6.5-9.3l20.3-126.2c.8-5.2 5.4-9.9 10.2-10.7l46.4-6.8 55.2-8.1 154-22.7c.5-.2 1-.3 1.4-.3m0-16c-1.2 0-2.5.1-3.8.3l-154 22.7-55.2 8.1-46.4 6.8c-11.8 1.7-21.7 11.8-23.7 24l-20.3 126.2c-1.2 7.4.7 14.7 5.2 20 4.2 5 10.5 7.8 17.1 7.8.9 0 1.9-.1 2.9-.2l268.6-32.1c13.3-1.6 24-13.1 24.9-26.9l2.4-38.2 3.2-52 2.6-41.3c.4-6.8-1.8-13.2-6.3-18-4.4-4.5-10.5-7.2-17.2-7.2h0zm-321.9-118l134.3 28.9c3 .6 4 4.4 1.6 6.4l-92.5 79.3c-1.9 1.7-4.9.9-5.9-1.5l-41.8-108.2c-1-2.7 1.4-5.5 4.3-4.9z"/><path d="M-3495.3-306.5c1.6 1.2 1.2 2 .5 2.8-1 1-3 .2-3.4.1-18.5-6-154.4-30.4-212.4 89.5-30.7 63.6-71-10.3-71-10.3s100.6-218.1 286.3-82.1zm503.4 59.3c1.3 1.7 1.4 2.1.6 3-1 1.1-3.2.3-3.7.2-20.3-5.8-160.8-73.1-218.6 59.1-30.7 70.1-78.3 11.2-77.3-8.2 4.4-89.2 189.6-194.1 299-54.1zM-4527.2 940l-4.8 26.8c-3 16.4-18.5 29.9-34.7 29.9l-277.2 1.1c-15.6.1-25.4-13-21.9-29.1l31-143.7c3.4-15.5 18.4-28.3 33.7-28.6l41.2-.7-25.1 116.2c-3.5 16.1 6.3 29.1 21.9 29.1l235.9-1zm-144.2-212.6l-12 55.7-60.6 1 6-27.6c3.4-15.6 18.4-28.3 33.7-28.6l32.9-.5zm240.8 146.6l-4.3 24c-3 16.4-18.5 29.9-34.7 29.9l-41.3.2 9.7-53.8 70.6-.3zm-86.9 12.1l-9.7 53.8-235.8.9c-15.6.1-25.4-13-21.9-29.1l25.1-116.2 60.6-1-13.6 63.1c-3.5 16.1 6.3 29.1 21.9 29.1l173.4-.6z"/><path d="M-4408.8 751.5l-22.2 122.8-70.7.3 12-66.2c2.9-15.9-7.7-28.5-23.6-28.2l-170.2 2.9 12-55.7 239.1-4.1c15.9-.3 26.5 12.3 23.6 28.2zm-96.7 68.4l-12 66.2-173.5.7c-15.6.1-25.4-13-21.9-29.1l13.6-63.1 170.2-2.9c15.9-.3 26.4 12.4 23.6 28.2zm187.1-135.2l-26.5 146.8c-3 16.4-18.5 29.9-34.7 29.9l-33 .1 22.2-122.8c2.9-15.9-7.7-28.5-23.6-28.2l-239.1 4.1 5.4-24.9c3.4-15.6 18.4-28.3 33.7-28.6l272-4.7c15.9-.2 26.5 12.4 23.6 28.3zm521.8 187.8l-20.6 83.6c-.5 2-2.3 3.5-4.4 3.5l-267.6 3.2c-3 0-5.2-2.8-4.5-5.7l34.9-141.4c.9-3.8 4.3-6.5 8.3-6.6l63.7-.8-16.5 66.5 206.7-2.3zm-25.8 106.2l-6.1 24.7c-.5 2-2.2 3.4-4.3 3.4l-267.9 3.2c-2.9 0-5.1-2.7-4.4-5.5l6.1-24.7c.5-2 2.2-3.4 4.3-3.4l267.9-3.2c2.9-.1 5.1 2.6 4.4 5.5z"/><path d="M-3782.3 815l-14.3 58-206.8 2.5 16.5-66.5 198-2.3c4.4-.2 7.7 4 6.6 8.3zm102.6-68.3l-41.9 167.9c-.3 1.3-1.5 2.2-2.8 2.2l-64.2.8c-1.9 0-3.4-1.8-2.9-3.7l27.4-109.3c1.3-5.1-2.6-9.9-7.8-9.9L-3966 797a1.84 1.84 0 0 1-1.8-2.3l13.6-54.9c1.2-4.9 5.6-8.4 10.7-8.5l249.4-3c9.6 0 16.7 9 14.4 18.4zm105.7-82.1l-46.1 187c-.6 2.3-2.6 3.9-4.9 3.9l-64 .8a1.84 1.84 0 0 1-1.8-2.3l28.9-117.5c2.6-10.5-5.5-20.7-16.3-20.6l-182.4 2.2c-1.5 0-2.6-1.4-2.3-2.9l13.3-53.9c1.3-5.2 5.9-8.9 11.3-8.9l252.2-3c8.1-.1 14.1 7.4 12.1 15.2z"/><path d="M-3304.8 1184.3c-9.3 0-16.9-7.6-16.9-16.9V980.3c0-9.3 7.6-16.9 16.9-16.9h405.1c9.3 0 16.9 7.6 16.9 16.9v187.2c0 9.3-7.6 16.9-16.9 16.9h-405.1z" class="P"/><path d="M-2899.8 971a9.39 9.39 0 0 1 9.4 9.4v187.2a9.39 9.39 0 0 1-9.4 9.4h-405.1a9.39 9.39 0 0 1-9.4-9.4V980.3a9.39 9.39 0 0 1 9.4-9.4h405.1m0-14.9h-405.1c-13.4 0-24.4 10.9-24.4 24.4v187.2c0 13.4 10.9 24.4 24.4 24.4h405.1c13.4 0 24.4-10.9 24.4-24.4V980.3c0-13.4-10.9-24.3-24.4-24.3h0z"/><use xlink:href="#C"/><use xlink:href="#C" y="193.1"/><g fill="#999"><use xlink:href="#D"/><path d="M-3414.1 870.5s-.9 21.1-43.6 21.1c-34.9 0-28.2 24.6-28.2 24.6l-34.9-46.7s26.5 6.2 56.7 6.2c31.6 0 50-5.2 50-5.2z"/></g><path d="M-3408.3 842c1.8 0 3.2 1.9 2.8 4-4.4 27.3-43.7 42.7-43.7 67.7 0 23.8 35.6 43 42.8 65.1.7 2.1-.7 4.4-2.7 4.4h-113.7c-2 0-3.4-2.2-2.8-4.3 6.7-23.3 42.2-42.1 42.2-65.2 0-23.8-37.6-43.8-42.7-67.5-.4-2.1.9-4.1 2.8-4.1h115m0-12.1h-114.9c-4.4 0-8.6 2-11.5 5.5-3 3.7-4.1 8.4-3.1 13.1 3.1 14.3 13.8 25.9 24.1 37.1 9 9.8 18.3 19.9 18.3 27.8s-9.1 17.7-18 27.2c-9.8 10.5-19.9 21.4-23.7 34.7-1.4 4.7-.4 9.8 2.5 13.7 2.8 3.8 7.1 5.9 11.8 5.9h113.7c4.7 0 9.2-2.3 12-6.2 2.9-4 3.7-9.2 2.2-14-4-12.2-13.7-22.6-23.1-32.5-9.4-10-19.1-20.3-19.1-28.9 0-7.8 8.4-16.2 17.3-25.2 11-11 23.4-23.4 26.2-40.6.7-4.6-.5-9.2-3.5-12.7-2.8-3-6.9-4.9-11.2-4.9h0z"/><use xlink:href="#D" x="219.1" y="-452.9"/><path d="M-3195 417.5s-.9 21.1-43.6 21.1c-34.9 0-28.2 24.6-28.2 24.6l-34.9-46.7s26.5 6.2 56.7 6.2c31.6.1 50-5.2 50-5.2z"/><path d="M-3189.2 389c1.8 0 3.2 1.9 2.8 4-4.4 27.3-43.7 42.7-43.7 67.7 0 23.8 35.6 43 42.8 65.1.7 2.1-.7 4.4-2.7 4.4h-113.7c-2 0-3.4-2.2-2.8-4.3 6.7-23.3 42.2-42.1 42.2-65.2 0-23.8-37.6-43.8-42.7-67.5-.4-2.1.9-4.1 2.8-4.1h115m0-12.1h-114.9c-4.4 0-8.6 2-11.5 5.5-3 3.7-4.1 8.4-3.1 13.1 3.1 14.3 13.8 25.9 24.1 37.1 9 9.8 18.3 19.9 18.3 27.8s-9.1 17.7-18 27.2c-9.8 10.5-19.9 21.4-23.7 34.7-1.4 4.7-.4 9.8 2.5 13.7 2.8 3.8 7.1 5.9 11.8 5.9h113.7c4.7 0 9.2-2.3 12-6.2 2.9-4 3.7-9.2 2.2-14-4-12.2-13.7-22.6-23.1-32.5-9.4-10-19.1-20.3-19.1-28.9 0-7.8 8.4-16.2 17.3-25.2 11-11 23.4-23.4 26.2-40.6.7-4.6-.5-9.2-3.5-12.7-2.8-2.9-6.9-4.9-11.2-4.9h0z"/><path d="M-2964.8 549.6c-2.6 0-5-1.2-6.5-3.3-1.6-2.1-2-4.9-1.2-7.5 3.7-11.7 14-21.9 23.9-31.7 11-10.9 21.4-21.1 21.4-31.5 0-10.5-11.1-21.5-21.7-32.2-10.5-10.5-21.4-21.3-24.3-33.7-.6-2.5 0-5.1 1.6-7.1s3.9-3.1 6.3-3.1h124.2c2.4 0 4.6 1.1 6.2 2.9 1.6 1.9 2.3 4.4 1.8 6.9-2.6 14.9-14.6 25.9-26.2 36.6-10.8 9.9-20.9 19.2-20.9 29.7 0 11.2 11.5 22.4 22.7 33.3 9.6 9.3 19.5 19 23.3 29.7.9 2.5.5 5.4-1.1 7.6-1.5 2.2-4 3.5-6.6 3.5h-122.9z" class="P"/><path d="M-2841.1 404.5c2 0 3.4 1.9 3.1 3.9-4.8 27.1-47.2 42.4-47.2 67.1 0 23.6 38.5 42.7 46.3 64.7.8 2.1-.8 4.4-3 4.4h-122.9c-2.1 0-3.7-2.2-3-4.3 7.3-23.1 45.6-41.8 45.6-64.7 0-23.6-40.7-43.5-46.2-67-.5-2.1 1-4.1 3-4.1h124.3m0-10h-124.2c-4 0-7.7 1.8-10.2 5-2.6 3.2-3.5 7.4-2.5 11.4 3.2 13.8 14.6 25.1 25.6 36.1 10 9.9 20.3 20.2 20.3 28.6 0 8.3-10.1 18.3-19.9 28-10.4 10.3-21.1 20.9-25.2 33.8-1.3 4.1-.5 8.5 2 11.9s6.4 5.4 10.5 5.4h122.9c4.2 0 8.2-2.1 10.7-5.6s3.1-8.1 1.7-12.1c-4.2-11.8-14.5-21.9-24.5-31.6-10.4-10.1-21.2-20.6-21.2-29.7 0-8.3 9.4-16.9 19.3-26 11.6-10.7 24.8-22.8 27.7-39.4.7-3.9-.4-7.9-2.9-11-2.6-3.1-6.2-4.8-10.1-4.8h0z"/><circle cx="-3176.6" cy="1049" r="117.4" class="P"/><circle cx="-3176.6" cy="1049" r="117.4" stroke="#fff" class="T U"/><path d="M-3176.6 961.6c48.2 0 87.4 39.2 87.4 87.4s-39.2 87.4-87.4 87.4-87.4-39.2-87.4-87.4 39.2-87.4 87.4-87.4m0-30c-64.8 0-117.4 52.5-117.4 117.4s52.5 117.4 117.4 117.4c64.8 0 117.4-52.5 117.4-117.4s-52.6-117.4-117.4-117.4h0z"/><g class="S T Q R"><path d="M-3224.2 1090.3l47.6-38.1m0-70.2v70.2" stroke-width="24"/><path d="M-3176.6 1103.4v19.6m76.7-74h-19.6m-115.6 0h-19.6" stroke-width="10"/></g><circle cx="-2545.7" cy="571.3" r="156.1" class="P"/><path d="M-2545.7 445.2c33.7 0 65.4 13.1 89.2 36.9s36.9 55.5 36.9 89.2-13.1 65.4-36.9 89.2-55.5 36.9-89.2 36.9-65.4-13.1-89.2-36.9-36.9-55.5-36.9-89.2 13.1-65.4 36.9-89.2c23.9-23.8 55.5-36.9 89.2-36.9m0-30c-86.2 0-156.1 69.9-156.1 156.1s69.9 156.1 156.1 156.1 156.1-69.9 156.1-156.1-69.9-156.1-156.1-156.1h0z"/><g class="S T Q R"><path d="M-2609 626.3l63.3-50.7m0-93.4v93.4" stroke-width="24"/><path d="M-2545.7 643.7v26m102-98.4h-26.1m-153.7 0h-26.1" stroke-width="10"/></g><g fill="#1631ab"><path d="M2036.8 278.7l-18.7 206.7c-.6 9.2-8.1 17.6-16.8 18.6l-66 7.6 11.1-123.1v-.3-.3c.7-10.6-2.8-20.6-9.8-28.1-6.9-7.4-16.5-11.4-26.8-11.4-1.9 0-3.9.1-5.8.4l-302.6 44.7 8.4-52.4c1.3-8 8.4-15.5 15.8-16.6l397.2-58.6c.7-.1 1.5-.2 2.2-.2 7.1-.1 12.3 5.3 11.8 13zm24.8 1.5v.3.3l-18.7 206.4c-1.5 21.2-18.1 38.9-38.7 41.3h0 0l-71.2 8.2 1.1-12.7 68.7-7.9c14.6-1.7 26.7-14.9 27.7-30l18.7-206.8c.4-7.2-1.9-13.8-6.5-18.8-4.5-4.8-10.9-7.5-17.8-7.5a26.93 26.93 0 0 0-4 .3L1623.7 312c-12.8 1.9-24.1 13.5-26.3 26.9l-9 56.3-12.9 1.9 9.7-60.1c3-18.9 18.5-34.5 36.8-37.2l397.1-58.6c1.9-.3 3.9-.4 5.8-.4 10.4 0 19.9 4.1 26.8 11.4 7.1 7.4 10.6 17.4 9.9 28z"/><path d="M2049.2 279.4l-18.7 206.8c-1 15.1-13.2 28.3-27.7 30l-68.7 7.9 1.1-12.6 66-7.6c8.7-1 16.2-9.4 16.8-18.6l18.7-206.7c.5-7.6-4.7-13.1-11.8-13.1-.7 0-1.4.1-2.2.2l-397.2 58.6c-7.5 1.1-14.6 8.5-15.8 16.6l-8.4 52.4-12.9 1.9 9-56.3c2.2-13.4 13.5-25 26.3-26.9l397.2-58.7a26.93 26.93 0 0 1 4-.3c6.9 0 13.2 2.7 17.8 7.5 4.7 5.1 7 11.8 6.5 18.9zm-499.9 166.7l-11 68.6-74.5 11 8.7-54c1.3-8 8.4-15.4 15.8-16.6l61-9zm25.8-3.8l-11 68.6-12.9 1.9 11-68.6z"/><path d="M1905.4 391.4c-4.5-4.8-10.9-7.5-17.8-7.5a26.93 26.93 0 0 0-4 .3l-306.5 45.3-12.9 1.9-12.9 1.9-2.1 12.9 12.9-1.9 12.9-1.9 310.4-45.8c.7-.1 1.5-.2 2.2-.2 7.1 0 12.3 5.5 11.8 13.1l-11.6 128.3-1.1 12.6-1.1 12.7 12.6-1.5 1.1-12.6h0l1.1-12.6 11.4-126c.5-7.4-1.8-14.1-6.4-19zM1885.6 563l-4.8 53c-.6 9.2-8.1 17.6-16.8 18.6l-64.9 7.5 6.3-69.9 80.2-9.2z"/><path d="M1886.7 550.3l-1.1 12.7-80.2 9.2 1.1-12.6z"/><path d="M1887.9 537.6l-1.2 12.7-80.2 9.3 1.2-12.7z"/><path d="M1899.5 409.4l-11.6 128.3-80.2 9.3 2.4-26.4v-.3-.3c.7-10.6-2.8-20.6-9.8-28.1-6.9-7.4-16.5-11.4-26.8-11.4-1.9 0-3.9.1-5.8.4L1564.2 511l11-68.6 310.4-45.8c.7-.1 1.5-.2 2.2-.2 7-.1 12.2 5.3 11.7 13zm-337.3 34.8l-11 68.6-12.9 1.9 11-68.6z"/><path d="M1914.5 382.9c-6.9-7.4-16.5-11.4-26.8-11.4-1.9 0-3.9.1-5.8.4l-302.6 44.7-12.9 1.9-12.9 1.9-2.1 12.9-2.1 12.9 12.9-1.9 12.9-1.9 310.4-45.8c.7-.1 1.5-.2 2.2-.2 7.1 0 12.3 5.5 11.8 13.1l-11.6 128.3-1.1 12.6-1.1 12.7 12.6-1.5 12.6-1.5 1.1-12.7 1.1-12.6 11.1-123.1v-.3-.3c.8-10.8-2.7-20.8-9.7-28.2z"/><path d="M1910.8 560l-5.2 57.9c-1.5 21.2-18.1 38.9-38.7 41.3h0 0l-70.1 8.1 1.1-12.6 67.5-7.8c14.6-1.7 26.7-14.9 27.7-30l5-55.5 12.7-1.4z"/><path d="M1898.2 561.5l-5 55.5c-1 15.1-13.2 28.3-27.7 30l-67.5 7.8 1.1-12.6 64.9-7.5c8.7-1 16.2-9.4 16.8-18.6l4.8-53 12.6-1.6zm-346.8-128.3l-2.1 12.9-61 9c-7.5 1.1-14.6 8.5-15.8 16.6l-8.7 54-12.9 1.9 9.3-57.9c2.1-13.4 13.4-25 26.3-26.9l64.9-9.6zm2-12.9l-2.1 12.9-64.9 9.6c-12.8 1.9-24.2 13.5-26.3 26.9l-9.3 57.9-12.9 1.9 9.9-61.8c3-18.9 18.5-34.5 36.8-37.2l68.8-10.2z"/></g><path d="M1312.2 827.8c-6.8 0-12.8-2.8-17.1-7.8-4.6-5.5-6.6-13.1-5.3-21.1l31.5-196.2c2.1-13.4 13.4-25 26.3-26.9l397.2-58.6a26.93 26.93 0 0 1 4-.3c6.9 0 13.2 2.7 17.8 7.5 4.6 4.9 6.9 11.6 6.5 18.8L1754.4 750c-1 15.1-13.2 28.3-27.7 30l-411.4 47.6c-1.2.1-2.2.2-3.1.2z" class="P"/><path d="M1775.5 515.9c-6.9-7.4-16.5-11.4-26.8-11.4-1.9 0-3.9.1-5.8.4L1539.3 535l-12.9 1.9-12.9 1.9-74.5 11-12.9 1.9-12.9 1.9-67.5 10c-18.3 2.7-33.7 18.4-36.8 37.2L1277.5 797c-1.9 11.5 1.1 22.9 8.1 31.1 6.6 7.7 16.3 12.1 26.6 12.1a32.53 32.53 0 0 0 4.4-.3l39.9-4.6 11.8-1.4 11.9-1.4 254.7-29.4 12.4-1.4 12.3-1.4 68.2-7.9h0 0c20.6-2.5 37.1-20.2 38.7-41.4l5.4-59.5 1.1-12.6 1.1-12.6 6.3-69.9 2.3-25.3 2.4-26.4v-.3-.3c.9-10.7-2.6-20.7-9.6-28.2zm-19 70.7l-1.1 12.6-6.3 69.9-2.3 25.3-4.9 54.6c-.6 9.2-8.1 17.6-16.8 18.6l-61.7 7.1-11.8 1.4-11.8 1.4-169.3 19.6-96.7 11.2-11.6 1.3-11.6 1.3-36.8 4.3c-.5.1-1 .1-1.5.1-7 0-11.4-6.2-10.1-14.4l31.5-196.2c1.3-8.1 8.4-15.5 15.8-16.6l59.8-8.8 12.9-1.9 12.9-1.9 74.5-11 12.9-1.9h0l12.9-1.9 211.3-31.2c.7-.1 1.5-.2 2.2-.2 7.1 0 12.3 5.5 11.8 13.1l-2.9 31.5-1.3 12.7z" fill="#1631ab"/><path d="M1258 320.8l225.1 24.2c5 .5 7.2 6.6 3.8 10.2l-138 145.9c-2.9 3.1-7.9 2.3-9.8-1.4L1252 329.6c-2.3-4.3 1.2-9.3 6-8.8z" class="W"/><use xlink:href="#E" class="P"/><path d="M1517.6 638.8c33.9 0 65.2 12.9 88.1 36.2 23.1 23.5 35.4 56 34.7 91.4-.8 38.9-16.7 75.5-44.9 103-27.2 26.6-63.8 41.9-100.3 41.9-3.3 0-6.6-.1-9.9-.4-33.4-2.5-63.3-17.7-84.3-42.8-20.8-24.9-31-57.2-28.8-90.8 2.2-33.2 16.5-65.5 40.2-91.1 23.9-25.8 55.4-42.3 88.5-46.4 5.5-.6 11.1-1 16.7-1h0zm0-23.3c-6.5 0-13 .4-19.6 1.2-80.3 10-143.9 80.2-149.1 159.2-5.3 80.8 51.6 152.3 134.7 158.4 3.9.3 7.8.4 11.6.4 88.2 0 166.5-73.5 168.4-167.8 1.8-88.5-65.3-151.4-146-151.4h0z" class="W"/><g class="T Q R"><path d="M1438 823.3l56.8-45.9m6.1-105l-6.1 105" stroke="#1631ab" class="U"/><path d="M1501.1 851.9l1.1 27.2m103.6-123.4l-29 3.3M1424 776.4l-23.1 2.7" stroke="#518050" class="V"/></g><path d="M1317.2 343.1c17.4-81.7 75-151.2 147.2-190.3 103-55.6 214.2-31.4 294.8 49.7 6.1 5.9 12.5 12.9 18.2 19.2 1.4 1.8 17.3 19.9 15.2 21.5-1.4 1.1-35.5-29.8-55.2-41.3-99.1-60.1-208.8-43.7-276.3 51.8-21.1 30.6-36 66.2-35.9 103 0-.1-108-13.6-108-13.6h0z" class="W"/><path d="M132.3 836.5c-6.8 0-12.8-2.8-17.1-7.8-4.6-5.5-6.6-13.1-5.3-21.1l31.5-196.2c2.1-13.4 13.4-25 26.3-26.9L564.8 526a26.93 26.93 0 0 1 4-.3c6.9 0 13.2 2.7 17.8 7.5 4.6 4.9 6.9 11.6 6.5 18.8l-18.7 206.8c-1 15.1-13.2 28.3-27.7 30l-411.4 47.6c-1.1.1-2 .1-3 .1z" class="P"/><path d="M595.6 524.7c-6.9-7.4-16.5-11.4-26.8-11.4-1.9 0-3.9.1-5.8.4l-203.5 30.1-12.9 1.9-12.9 1.9-74.5 11-12.9 1.9-12.9 1.9-67.5 10c-18.3 2.7-33.7 18.4-36.8 37.2L97.6 805.7c-1.9 11.5 1.1 22.9 8.1 31.1 6.6 7.7 16.3 12.1 26.6 12.1a32.53 32.53 0 0 0 4.4-.3l39.9-4.6 11.8-1.4 11.9-1.4L455 811.9l12.4-1.4 12.3-1.4 68.2-7.9h0 0c20.6-2.5 37.1-20.2 38.7-41.4l5.4-59.5 1.1-12.6 1.1-12.6 6.3-69.9 2.3-25.3 2.4-26.4v-.3-.3c.9-10.8-2.5-20.8-9.6-28.2zm-18.9 70.6l-1.1 12.6-6.3 69.9-2.3 25.3-4.9 54.6c-.6 9.2-8.1 17.6-16.8 18.6l-61.7 7.1-11.8 1.4-11.8 1.4-169.3 19.6L194 817l-11.6 1.3-11.6 1.3-36.8 4.3c-.5.1-1 .1-1.5.1-7 0-11.4-6.2-10.1-14.4l31.5-196.2c1.3-8.1 8.4-15.5 15.8-16.6l59.8-8.8 12.9-1.9 12.9-1.9 74.5-11 12.9-1.9h0l12.9-1.9 211.3-31.2c.7-.1 1.5-.2 2.2-.2 7.1 0 12.3 5.5 11.8 13.1l-2.9 31.5-1.3 12.7zM116.4 295.6l224.5 29.5c5 .7 7.1 6.7 3.5 10.3L203.1 478.1c-3 3-8 2.1-9.8-1.6l-83.2-172.1c-2.1-4.5 1.5-9.4 6.3-8.8z"/><use xlink:href="#E" x="-1179.9" y="8.7" class="P"/><path d="M337.7 647.6c33.9 0 65.2 12.9 88.1 36.2 23.1 23.5 35.4 56 34.7 91.4-.8 38.9-16.7 75.5-44.9 103-27.2 26.6-63.8 41.9-100.3 41.9-3.3 0-6.6-.1-9.9-.4-33.4-2.5-63.3-17.7-84.3-42.8-20.8-24.9-31-57.2-28.8-90.8 2.2-33.2 16.5-65.5 40.2-91.1 23.9-25.8 55.4-42.3 88.5-46.4 5.5-.7 11.2-1 16.7-1h0zm0-23.3c-6.5 0-13 .4-19.6 1.2-80.3 10-143.9 80.2-149.1 159.2-5.3 80.8 51.6 152.3 134.7 158.4 3.9.3 7.8.4 11.6.4 88.2 0 166.5-73.5 168.4-167.8 1.8-88.6-65.2-151.4-146-151.4h0z"/><g class="T Q R S"><path d="M258.1 832.1l56.8-46m6.1-105l-6.1 105" class="U"/><path d="M321.2 860.7l1.1 27.1m103.6-123.4l-28.9 3.3m-152.8 17.5l-23.2 2.6" class="V"/></g><path d="M172.6 319.3c19.3-81.3 78.5-149.4 151.6-186.8C428.5 79.2 539.1 106 617.7 189c5.9 6 12.2 13.2 17.7 19.6 1.4 1.8 16.9 20.3 14.7 21.9-1.4 1.1-34.8-30.6-54.2-42.6-97.7-62.4-207.7-48.6-277.4 45.3-21.8 30.1-37.5 65.4-38.3 102.2 0 0-107.6-16.1-107.6-16.1h0z"/><path d="M-1012.1 96.4H-181v831.1h-831.1z" fill="#ccc"/><path d="M-670.6 583.9c-6 0-11.4-2.5-15.2-6.9-4.1-4.9-5.9-11.7-4.7-18.8l28-174.8c1.9-12 12-22.3 23.4-24l353.9-52.3c1.2-.2 2.4-.3 3.6-.3 6.2 0 11.8 2.4 15.8 6.7 4.1 4.4 6.2 10.3 5.8 16.7l-16.7 184.3c-.9 13.5-11.7 25.2-24.7 26.7L-668 583.8c-.8.1-1.7.1-2.6.1z" class="P"/><path d="M-281.6 318c6.4 0 11 4.9 10.5 11.7l-16.7 184.1c-.5 8.2-7.2 15.7-15 16.6l-366.6 42.4c-.5.1-.9.1-1.3.1-6.2 0-10.2-5.5-9-12.9l28.1-174.8c1.1-7.2 7.5-13.8 14.1-14.8l353.9-52.3c.7 0 1.4-.1 2-.1m0-22.1c-1.7 0-3.5.1-5.2.4l-353.9 52.3c-16.3 2.4-30.1 16.4-32.8 33.2l-28 174.8c-1.7 10.3 1 20.4 7.2 27.7 5.9 6.9 14.5 10.8 23.7 10.8 1.3 0 2.6-.1 3.9-.2l366.5-42.4h0 0c18.3-2.2 33.1-18 34.4-36.8l16.6-183.9v-.3-.3c.6-9.5-2.5-18.4-8.8-25-5.9-6.7-14.4-10.3-23.6-10.3h0z"/><path d="M-773.2 679.8c-6 0-11.4-2.5-15.2-6.9-4.1-4.9-5.9-11.7-4.7-18.8l28.1-174.8c1.9-12 12-22.3 23.4-24l353.9-52.3c1.2-.2 2.4-.3 3.6-.3 6.2 0 11.8 2.4 15.8 6.7 4.1 4.4 6.2 10.3 5.8 16.7l-16.7 184.3c-.9 13.5-11.7 25.2-24.7 26.7l-366.6 42.4c-1 .2-1.9.3-2.7.3z"/><path d="M-384.2 413.8c6.4 0 11 4.9 10.5 11.7l-16.7 184.1c-.5 8.2-7.2 15.7-15 16.6L-772 668.6c-.5.1-.9.1-1.3.1-6.2 0-10.2-5.5-9-12.9l28.1-174.8c1.1-7.2 7.5-13.8 14.1-14.8l353.9-52.3c.7 0 1.3-.1 2-.1m0-22.1c-1.7 0-3.5.1-5.2.4l-353.9 52.3c-16.3 2.4-30.1 16.4-32.8 33.2l-28 174.8c-1.7 10.3 1 20.4 7.2 27.7 5.9 6.9 14.5 10.8 23.7 10.8 1.3 0 2.6-.1 3.9-.2l366.5-42.4h0 0c18.3-2.2 33.1-18 34.4-36.8l16.6-183.9v-.3-.3c.6-9.5-2.5-18.4-8.8-25-5.9-6.7-14.4-10.3-23.6-10.3h0z"/><path d="M-875 776.9c-6 0-11.4-2.5-15.2-6.9-4.1-4.9-5.9-11.7-4.7-18.8l28.1-174.8c1.9-12 12-22.3 23.4-24l353.9-52.3c1.2-.2 2.4-.3 3.6-.3 6.2 0 11.8 2.4 15.8 6.7 4.1 4.4 6.2 10.3 5.8 16.7L-481 707.5c-.9 13.5-11.7 25.2-24.7 26.7l-366.6 42.4c-.9.2-1.8.3-2.7.3z" class="P"/><path d="M-486 510.9c6.4 0 11 4.9 10.5 11.7l-16.7 184.1c-.5 8.2-7.2 15.7-15 16.6l-366.6 42.4c-.5.1-.9.1-1.3.1-6.2 0-10.2-5.5-9-12.9l28.1-174.8c1.1-7.2 7.5-13.8 14.1-14.8L-488 511c.7 0 1.4-.1 2-.1m0-22.1c-1.7 0-3.5.1-5.2.4l-353.9 52.3c-16.3 2.4-30.1 16.4-32.8 33.2l-28 174.8c-1.7 10.3 1 20.4 7.2 27.7 5.9 6.9 14.5 10.8 23.7 10.8 1.3 0 2.6-.1 3.9-.2l366.5-42.4h0 0c18.3-2.2 33.1-18 34.4-36.8l16.6-183.9v-.3-.3c.6-9.5-2.5-18.4-8.8-25-5.9-6.7-14.4-10.3-23.6-10.3h0zm-429.4-180.6l196.9 44.2c4.4 1 5.7 6.6 2.3 9.4L-853.1 477c-2.9 2.4-7.3 1.3-8.6-2.2l-60-159.4c-1.5-4 2-8.2 6.3-7.2z"/><path d="M-711.9 861.7c-3.2 0-6.4-.1-9.6-.4-66.4-4.9-114.9-62-110.4-130.1 2.1-31.9 15.8-63 38.6-87.6 23-24.8 53.2-40.6 85.2-44.6 5.4-.7 10.9-1 16.2-1 33 0 63.5 12.6 85.9 35.4 22.5 23 34.6 54.6 33.9 88.9-.8 37.4-16.1 72.6-43.1 99-26.3 25.8-61.5 40.4-96.7 40.4z" class="P"/><path d="M-691.9 608.5c30.2 0 58.1 11.5 78.5 32.3 20.6 21 31.5 49.9 30.9 81.5-.7 34.7-14.9 67.3-40 91.8-24.3 23.7-56.8 37.3-89.4 37.3a129.33 129.33 0 0 1-8.8-.3c-29.7-2.2-56.4-15.7-75.1-38.2-18.5-22.2-27.6-51-25.7-80.9 1.9-29.5 14.7-58.4 35.8-81.2 21.3-23 49.3-37.7 78.9-41.4a122.89 122.89 0 0 1 14.9-.9m0-20.8c-5.8 0-11.6.4-17.5 1.1-71.6 8.9-128.2 71.4-132.8 141.8-4.7 72 45.9 135.7 120 141.1 3.5.3 6.9.4 10.4.4 78.6 0 148.4-65.5 150.1-149.5 1.5-78.9-58.3-134.9-130.2-134.9h0z"/><g class="T Q R S"><path d="M-762.8 772.9l50.5-41m5.5-93.5l-5.5 93.5" class="U"/><path d="M-706.6 798.4l.9 24.2m92.4-110l-25.8 3m-136.2 15.5l-20.6 2.3" class="V"/></g><path d="M-865.3 333.9c23.7-70.6 81.7-126.3 149.6-153.6 96.8-38.9 192.8-6.2 255.9 73.7 4.8 5.8 9.7 12.7 14.2 18.8 1.1 1.7 13.4 19.3 11.3 20.6-1.4.8-28.4-30-44.7-42.1-81.7-63.3-180.4-59.8-249.8 17.9-21.8 25-38.6 55-42.2 87.6-.1 0-94.3-22.9-94.3-22.9h0z"/><path d="M-2756.8-334.5h600.1v600.1h-600.1z" fill="#ccc"/><path d="M-2510.2 17.5a14.43 14.43 0 0 1-11-5c-3-3.5-4.2-8.4-3.4-13.6l20.3-126.2c1.4-8.6 8.7-16.1 16.9-17.3l255.5-37.7c.9-.1 1.7-.2 2.6-.2 4.4 0 8.5 1.7 11.4 4.8 3 3.2 4.5 7.5 4.2 12.1l-12 133.1c-.7 9.7-8.5 18.2-17.8 19.3l-264.7 30.6c-.7 0-1.4.1-2 .1z" class="P"/><path d="M-2229.3-174.5c4.6 0 7.9 3.5 7.6 8.4l-12 133c-.4 5.9-5.2 11.3-10.8 12l-264.7 30.6c-.3 0-.6.1-1 .1-4.5 0-7.4-4-6.5-9.3l20.3-126.2c.8-5.2 5.4-9.9 10.2-10.7l255.5-37.7c.4-.2.9-.2 1.4-.2m0-16c-1.2 0-2.5.1-3.8.3l-255.5 37.7c-11.8 1.7-21.7 11.8-23.7 24l-20.3 126.2c-1.2 7.4.7 14.7 5.2 20 4.2 5 10.5 7.8 17.1 7.8.9 0 1.9-.1 2.8-.2l264.6-30.6h0 0c13.2-1.6 23.9-13 24.9-26.6l12-132.8v-.2-.2c.4-6.8-1.8-13.3-6.3-18.1-4.2-4.7-10.4-7.3-17-7.3h0z"/><path d="M-2584.3 86.6a14.43 14.43 0 0 1-11-5c-3-3.5-4.2-8.4-3.4-13.6l20.3-126.2c1.4-8.6 8.7-16.1 16.9-17.3l255.5-37.7c.9-.1 1.7-.2 2.6-.2 4.4 0 8.5 1.7 11.4 4.8 3 3.2 4.5 7.5 4.2 12.1l-12 133.1c-.7 9.7-8.5 18.2-17.8 19.3l-264.7 30.6c-.7.1-1.4.1-2 .1z"/><path d="M-2303.4-105.4c4.6 0 7.9 3.5 7.6 8.4l-12 133c-.4 5.9-5.2 11.3-10.8 12l-264.7 30.6c-.3 0-.6.1-1 .1-4.5 0-7.4-4-6.5-9.3l20.3-126.2c.8-5.2 5.4-9.9 10.2-10.7l255.5-37.7c.4-.1.9-.2 1.4-.2m0-16c-1.2 0-2.5.1-3.8.3l-255.5 37.7c-11.8 1.7-21.7 11.8-23.7 24l-20.3 126.2c-1.2 7.4.7 14.7 5.2 20 4.2 5 10.5 7.8 17.1 7.8.9 0 1.9-.1 2.8-.2l264.6-30.6h0 0c13.2-1.6 23.9-13 24.9-26.6l12-132.8v-.2-.2c.4-6.8-1.8-13.3-6.3-18.1-4.2-4.7-10.4-7.3-17-7.3h0z"/><path d="M-2657.8 156.7a14.43 14.43 0 0 1-11-5c-3-3.5-4.2-8.4-3.4-13.6l20.3-126.2c1.4-8.6 8.7-16.1 16.9-17.3l255.5-37.7c.9-.1 1.7-.2 2.6-.2 4.4 0 8.5 1.7 11.4 4.8 3 3.2 4.5 7.5 4.2 12.1l-12 133.1c-.7 9.7-8.5 18.2-17.8 19.3l-264.7 30.6c-.7.1-1.3.1-2 .1z" class="P"/><path d="M-2376.9-35.3c4.6 0 7.9 3.5 7.6 8.4l-12 133c-.4 5.9-5.2 11.3-10.8 12l-264.7 30.6c-.3 0-.6.1-1 .1-4.5 0-7.4-4-6.5-9.3l20.3-126.2c.8-5.2 5.4-9.9 10.2-10.7l255.5-37.7c.5-.1.9-.2 1.4-.2m0-16c-1.2 0-2.5.1-3.8.3l-255.5 37.7c-11.8 1.7-21.7 11.8-23.7 24l-20.3 126.2c-1.2 7.4.7 14.7 5.2 20 4.2 5 10.5 7.8 17.1 7.8.9 0 1.9-.1 2.8-.2l264.6-30.6h0 0c13.2-1.6 23.9-13 24.9-26.6l12-132.8v-.2-.2c.4-6.8-1.8-13.3-6.3-18.1-4.2-4.6-10.3-7.3-17-7.3h0zM-2687-181.6l142.2 31.9c3.2.7 4.1 4.7 1.7 6.8l-98.8 83.2c-2.1 1.7-5.2.9-6.2-1.6l-43.3-115.1c-1.2-3 1.4-5.9 4.4-5.2z"/><path d="M-2540 218c-2.3 0-4.6-.1-6.9-.3-47.9-3.5-83-44.8-79.7-93.9 1.5-23 11.4-45.5 27.9-63.2 16.6-17.9 38.4-29.3 61.5-32.2 3.9-.5 7.8-.7 11.7-.7 23.8 0 45.9 9.1 62 25.6 16.3 16.6 25 39.4 24.4 64.2-.5 27-11.6 52.4-31.1 71.5-19 18.4-44.4 29-69.8 29z" class="P"/><path d="M-2525.6 35.2c21.8 0 41.9 8.3 56.7 23.3 14.8 15.2 22.8 36 22.3 58.8-.5 25.1-10.8 48.6-28.9 66.3-17.5 17.1-41 26.9-64.5 26.9-2.1 0-4.3-.1-6.4-.2-21.5-1.6-40.7-11.4-54.2-27.6-13.4-16.1-20-36.8-18.5-58.4 1.4-21.3 10.6-42.2 25.9-58.6 15.4-16.6 35.6-27.2 56.9-29.9 3.5-.4 7.1-.6 10.7-.6m0-15c-4.2 0-8.4.3-12.6.8-51.7 6.4-92.6 51.6-95.9 102.4-3.4 52 33.2 98 86.7 101.9 2.5.2 5 .3 7.5.3 56.7 0 107.1-47.3 108.4-107.9 1-57.1-42.1-97.5-94.1-97.5h0z"/><g class="T Q R S"><path d="M-2576.8 153.9l36.5-29.6m4-67.6l-4 67.6" class="U"/><path d="M-2536.2 172.3l.7 17.4m66.7-79.3l-18.7 2.1m-98.3 11.2l-14.9 1.7" class="V"/></g><path d="M-2650.8-163.1c17.1-50.9 59-91.2 108-110.9 69.9-28.1 139.2-4.5 184.8 53.2 3.5 4.2 7 9.2 10.2 13.6.8 1.3 9.6 14 8.2 14.9-1 .6-20.5-21.6-32.3-30.4-59-45.7-130.3-43.2-180.4 13-15.7 18-27.8 39.7-30.5 63.2l-68-16.6h0zm299.8 689.8s19.4-32.6 68.6-32.6c40.3 0 31.8-34.5 31.8-34.5l47.2 51.4v18.7l-12.8 4.8-129.8-3.9-5-3.9zm135.2-151.2s-1.4 27.7-62.2 27.7c-49.9 0-40.3 32.3-40.3 32.3l-49.8-61.2s37.8 8.2 81 8.2c45-.1 71.3-7 71.3-7z"/><defs ><path id="B" d="M-4510.9-175.4c-16.9 0-30.7-13.8-30.7-30.7v-26.4c0-16.9 13.8-30.7 30.7-30.7h5.2c16.9 0 30.7 13.8 30.7 30.7v26.4c0 16.9-13.8 30.7-30.7 30.7h-5.2z"/><path id="C" d="M-3401.6 826.5H-3533a6.7 6.7 0 0 1-6.7-6.7v-6.5a6.7 6.7 0 0 1 6.7-6.7h131.4a6.7 6.7 0 0 1 6.7 6.7v6.5a6.7 6.7 0 0 1-6.7 6.7z"/><path id="D" d="M-3528 984.3s16.8-30.7 59.4-30.7c34.9 0 27.6-32.5 27.6-32.5l40.9 48.5v17.6l-11.1 4.5-112.5-3.7-4.3-3.7z"/><path id="E" d="M1495.2 923.1c-3.6 0-7.2-.1-10.8-.4-74.5-5.5-128.9-69.6-123.9-146 2.4-35.8 17.7-70.7 43.3-98.3 25.8-27.8 59.7-45.6 95.6-50.1 6.1-.8 12.2-1.1 18.2-1.1 37 0 71.3 14.1 96.4 39.7 25.3 25.8 38.8 61.3 38 99.8-.9 42-18 81.5-48.4 111.1-29.4 28.8-68.9 45.3-108.4 45.3z"/></defs></svg>